<svg 
 xmlns="http://www.w3.org/2000/svg"
 xmlns:xlink="http://www.w3.org/1999/xlink"
 width="16px" height="14px">
<path fill-rule="evenodd"  fill="rgb(110, 110, 110)"
 d="M15.953,2.316 L14.145,7.576 C13.803,8.631 13.192,9.067 11.970,9.067 L8.127,9.067 C7.189,9.067 6.634,8.568 6.046,7.576 L3.251,2.017 L1.002,2.017 C0.449,2.017 0.002,1.566 0.002,1.009 C0.002,0.453 0.449,0.002 1.002,0.002 L3.658,0.002 C4.071,0.002 4.832,0.375 5.021,0.958 C5.021,0.958 6.545,4.215 7.461,6.014 C7.790,6.769 8.250,7.053 8.938,7.053 C9.625,7.053 10.406,7.053 11.063,7.053 C11.863,7.053 12.245,6.829 12.540,6.024 C13.048,4.226 14.043,1.714 14.043,1.714 C14.209,1.183 14.770,0.887 15.296,1.053 C15.824,1.220 16.118,1.784 15.953,2.316 ZM15.296,1.053 C14.770,0.887 15.824,1.220 15.296,1.053 ZM7.500,10.183 C8.268,10.183 8.891,10.810 8.891,11.584 C8.891,12.357 8.268,12.984 7.500,12.984 C6.732,12.984 6.109,12.357 6.109,11.584 C6.109,10.810 6.732,10.183 7.500,10.183 ZM12.500,10.152 C13.285,10.152 13.922,10.793 13.922,11.584 C13.922,12.374 13.285,13.016 12.500,13.016 C11.715,13.016 11.078,12.374 11.078,11.584 C11.078,10.793 11.715,10.152 12.500,10.152 Z"/>
</svg>