<svg 
 xmlns="http://www.w3.org/2000/svg"
 xmlns:xlink="http://www.w3.org/1999/xlink"
 width="16px" height="16px">
<path fill-rule="evenodd"  fill="rgb(110, 110, 110)"
 d="M15.953,4.348 L14.145,9.593 C13.803,10.644 13.192,11.080 11.970,11.080 L8.127,11.080 C7.189,11.080 6.634,10.581 6.046,9.593 L3.250,4.050 L1.002,4.050 C0.449,4.050 0.001,3.601 0.001,3.046 C0.001,2.491 0.449,2.042 1.002,2.042 L3.658,2.042 C4.071,2.042 4.832,2.413 5.021,2.995 C5.021,2.995 6.545,6.242 7.461,8.036 C7.790,8.789 8.250,9.071 8.938,9.071 C9.625,9.071 10.406,9.071 11.063,9.071 C11.863,9.071 12.245,8.848 12.540,8.045 C13.048,6.253 14.044,3.748 14.044,3.748 C14.209,3.219 14.770,2.924 15.296,3.090 C15.824,3.256 16.118,3.819 15.953,4.348 ZM15.296,3.090 C14.770,2.924 15.824,3.256 15.296,3.090 ZM10.000,6.603 L6.465,3.053 L9.000,3.053 L8.999,1.017 C9.000,0.463 9.448,0.013 10.000,0.012 C10.552,0.013 11.000,0.463 11.001,1.017 L11.000,3.053 L13.536,3.053 L10.000,6.603 ZM7.500,12.191 C8.268,12.191 8.891,12.817 8.891,13.588 C8.891,14.359 8.268,14.984 7.500,14.984 C6.732,14.984 6.109,14.359 6.109,13.588 C6.109,12.817 6.732,12.191 7.500,12.191 ZM12.500,12.160 C13.285,12.160 13.922,12.799 13.922,13.588 C13.922,14.376 13.285,15.016 12.500,15.016 C11.715,15.016 11.078,14.376 11.078,13.588 C11.078,12.799 11.715,12.160 12.500,12.160 Z"/>
</svg>