<svg 
 xmlns="http://www.w3.org/2000/svg"
 xmlns:xlink="http://www.w3.org/1999/xlink"
 width="16px" height="13px">
<path fill-rule="evenodd"  fill="rgb(110, 110, 110)"
 d="M10.960,8.004 L10.960,5.562 C5.512,5.562 3.973,7.998 3.973,7.998 C3.973,2.633 10.831,2.343 10.959,2.343 C10.960,2.343 10.960,-0.001 10.960,-0.001 L16.000,4.020 L10.960,8.004 ZM5.000,2.000 C4.996,2.000 4.994,1.998 4.990,1.998 L4.990,2.001 L0.990,2.001 L0.990,12.001 L12.990,12.001 L12.990,10.001 L13.000,10.001 L13.000,10.000 C13.000,9.447 12.979,9.000 13.000,9.000 C13.553,9.000 14.000,9.447 14.000,10.000 L14.000,11.000 C14.000,11.034 13.984,11.063 13.981,11.096 C13.930,12.155 13.063,13.001 11.990,13.001 L1.990,13.001 C0.887,13.001 -0.010,12.106 -0.010,11.001 L-0.010,3.001 C-0.010,1.897 0.887,1.001 1.990,1.001 L4.990,1.001 L4.990,1.002 C4.994,1.002 4.996,1.000 5.000,1.000 C5.553,1.000 6.000,1.447 6.000,2.000 C6.000,2.021 5.553,2.000 5.000,2.000 Z"/>
</svg>