<svg 
 xmlns="http://www.w3.org/2000/svg"
 xmlns:xlink="http://www.w3.org/1999/xlink"
 width="14px" height="14px">
<path fill-rule="evenodd"  fill="rgb(126, 126, 126)"
 d="M13.676,12.279 L10.903,9.507 C11.610,8.522 12.031,7.318 12.031,6.014 C12.031,2.700 9.345,0.014 6.031,0.014 C2.718,0.014 0.031,2.700 0.031,6.014 C0.031,9.327 2.718,12.014 6.031,12.014 C7.317,12.014 8.507,11.605 9.484,10.916 L12.262,13.694 C12.652,14.084 13.285,14.084 13.676,13.694 C14.067,13.304 14.067,12.670 13.676,12.279 ZM6.031,10.014 C3.822,10.014 2.031,8.223 2.031,6.014 C2.031,3.805 3.822,2.014 6.031,2.014 C8.240,2.014 10.031,3.805 10.031,6.014 C10.031,8.223 8.240,10.014 6.031,10.014 Z"/>
</svg>