<svg 
 xmlns="http://www.w3.org/2000/svg"
 xmlns:xlink="http://www.w3.org/1999/xlink"
 width="16px" height="16px">
<path fill-rule="evenodd"  fill="rgb(110, 110, 110)"
 d="M15.927,5.969 C15.789,5.557 15.434,5.256 15.007,5.190 L10.851,4.552 L9.044,0.681 C8.854,0.274 8.448,0.014 8.000,0.014 C7.553,0.014 7.146,0.274 6.956,0.681 L5.149,4.552 L0.993,5.190 C0.565,5.256 0.211,5.557 0.073,5.969 C-0.064,6.382 0.040,6.836 0.341,7.147 L3.387,10.286 L2.681,14.640 C2.609,15.079 2.793,15.519 3.154,15.776 C3.352,15.916 3.585,15.987 3.818,15.987 C4.010,15.987 4.202,15.939 4.377,15.843 L8.000,13.829 L11.624,15.843 C11.798,15.939 11.990,15.987 12.181,15.987 C12.415,15.987 12.647,15.916 12.846,15.776 C13.207,15.519 13.391,15.079 13.320,14.640 L12.613,10.286 L15.659,7.147 C15.961,6.836 16.064,6.382 15.927,5.969 ZM11.788,9.476 C11.532,9.739 11.416,10.109 11.475,10.472 L12.181,14.828 L8.558,12.814 C8.384,12.718 8.192,12.669 8.000,12.669 C7.808,12.669 7.616,12.718 7.442,12.814 L3.818,14.828 L4.525,10.472 C4.584,10.109 4.468,9.739 4.213,9.476 L1.167,6.337 L5.323,5.698 C5.703,5.640 6.030,5.395 6.193,5.045 L8.000,1.174 L9.807,5.045 C9.970,5.395 10.297,5.640 10.677,5.698 L14.833,6.337 L11.788,9.476 Z"/>
</svg>