<svg 
 xmlns="http://www.w3.org/2000/svg"
 xmlns:xlink="http://www.w3.org/1999/xlink"
 width="16px" height="10px">
<path fill-rule="evenodd"  fill="rgb(110, 110, 110)"
 d="M15.983,5.114 C15.977,5.135 15.980,5.157 15.972,5.178 C15.970,5.186 15.962,5.192 15.959,5.199 C15.954,5.212 15.955,5.225 15.949,5.236 C14.496,8.016 11.335,10.004 8.000,10.004 C4.665,10.004 1.504,8.012 0.052,5.233 C0.045,5.221 0.046,5.208 0.041,5.196 C0.038,5.188 0.031,5.183 0.028,5.175 C0.020,5.154 0.023,5.132 0.018,5.111 C0.009,5.073 0.000,5.037 0.000,4.999 C0.000,4.961 0.009,4.924 0.018,4.887 C0.023,4.866 0.020,4.843 0.028,4.823 C0.031,4.814 0.038,4.809 0.041,4.801 C0.046,4.789 0.045,4.776 0.052,4.764 C1.504,1.985 4.665,-0.003 8.000,-0.003 C11.335,-0.003 14.496,1.988 15.949,4.768 C15.955,4.780 15.954,4.793 15.959,4.805 C15.962,4.813 15.970,4.818 15.972,4.826 C15.980,4.847 15.977,4.869 15.983,4.890 C15.991,4.928 16.000,4.964 16.000,5.002 C16.000,5.040 15.991,5.076 15.983,5.114 ZM8.000,0.999 C5.192,0.999 2.379,2.592 1.000,5.000 C2.372,7.405 5.189,9.000 8.000,9.000 C10.808,9.000 13.621,7.409 15.000,5.000 C13.628,2.595 10.811,0.999 8.000,0.999 ZM7.988,8.507 C6.052,8.507 4.483,6.938 4.483,5.002 C4.483,3.066 6.052,1.497 7.988,1.497 C9.924,1.497 11.493,3.066 11.493,5.002 C11.493,6.938 9.924,8.507 7.988,8.507 ZM7.988,1.998 C6.332,1.998 4.984,3.345 4.984,5.002 C4.984,6.659 6.332,8.007 7.988,8.007 C9.645,8.007 10.993,6.659 10.993,5.002 C10.993,3.345 9.645,1.998 7.988,1.998 ZM8.000,3.499 L8.000,3.499 C7.172,3.499 6.499,4.173 6.499,5.000 C6.499,5.138 6.387,5.251 6.249,5.251 C6.111,5.251 5.999,5.138 5.999,5.000 C5.999,3.896 6.893,3.001 7.997,2.999 C7.998,2.999 7.999,2.999 8.000,2.999 C8.138,2.999 8.250,3.111 8.250,3.249 C8.250,3.387 8.138,3.499 8.000,3.499 Z"/>
</svg>